<?xml version="1.0" encoding="UTF-8" standalone="no"?>
<svg
   version="1.2"
   viewBox="0 0 1000 1559"
   width="1000"
   height="1559"
   id="svg1"
   sodipodi:docname="eyeClosed.svg"
   inkscape:version="1.4.2 (ebf0e940d0, 2025-05-08)"
   xmlns:inkscape="http://www.inkscape.org/namespaces/inkscape"
   xmlns:sodipodi="http://sodipodi.sourceforge.net/DTD/sodipodi-0.dtd"
   xmlns="http://www.w3.org/2000/svg"
   xmlns:svg="http://www.w3.org/2000/svg"
   xmlns:rdf="http://www.w3.org/1999/02/22-rdf-syntax-ns#"
   xmlns:cc="http://creativecommons.org/ns#"
   xmlns:dc="http://purl.org/dc/elements/1.1/">
  <defs
     id="defs1" />
  <sodipodi:namedview
     id="namedview1"
     pagecolor="#ffffff"
     bordercolor="#000000"
     borderopacity="0.25"
     inkscape:showpageshadow="2"
     inkscape:pageopacity="0.0"
     inkscape:pagecheckerboard="0"
     inkscape:deskcolor="#d1d1d1"
     inkscape:zoom="0.34701732"
     inkscape:cx="499.97505"
     inkscape:cy="779.5"
     inkscape:window-width="1362"
     inkscape:window-height="744"
     inkscape:window-x="1"
     inkscape:window-y="21"
     inkscape:window-maximized="1"
     inkscape:current-layer="svg1" />
  <title
     id="title1">gabbeeto empty</title>
  <style
     id="style1">
		.s0 { fill: #000000 } 
		.s1 { opacity: .94;fill: #000000 } 
		.s2 { fill: #ffbbbb } 
		.s3 { fill: #010100 } 
	</style>
  <path
     id="eyesOpened"
     class="s0"
     d="m751 515.2c-0.8 0.7-1.3 1.7-1.2 2.3 0.1 0.5-0.6 1.8-1.6 2.9-1 1.1-2.4 5.9-3.5 12-1 5.5-2.2 13-2.7 16.6-0.5 3.6-0.9 38-1 76.5-0.1 38.5-0.1 79.6-0.1 91.2l0.1 21.3c4.3 1.8 8 2.5 11 2.7 4.8 0.4 5.8 0.1 8.3-2.1 1.5-1.4 3-3.8 3.3-5.4 0.3-1.5 1.5-5.4 2.6-8.7 1.4-3.9 2.4-10.7 3.1-19.5 0.5-7.4 1-44.6 1.1-82.5 0.1-47.4-0.3-72.8-1.1-81-0.9-8.4-2-13.9-3.9-18.5-1.4-3.6-3.3-7.1-4.2-7.8-1-0.7-3.3-1.2-5.2-1.2-2 0-4.2 0.5-5 1.2zm-387.3 10.5c-0.9 1-2.8 4.7-4.2 8.3-1.4 3.6-3 10.1-3.6 14.5-0.5 4.4-1.4 10.7-2.1 14-0.8 4.1-1.2 33.8-1.5 95l-0.3 89c5 4.2 8.3 5.7 10.5 6.1 3 0.5 4.8 0.2 7.2-1.2 2.4-1.4 4-3.8 6.2-8.9 2.2-5.1 3.4-10.4 4.7-20 1.2-9.9 1.8-28.1 2.5-76 0.6-41.3 0.6-67.5 0-76-0.6-7.2-1.7-17.7-2.6-23.5-0.8-5.8-2-11.4-2.5-12.5-0.6-1.1-2-3.8-3.3-6-1.8-3.3-2.8-4-5.8-4.3-2.4-0.2-4 0.3-5.2 1.5z" />
  <metadata
     id="metadata1">
    <rdf:RDF>
      <cc:Work
         rdf:about="">
        <dc:title>gabbeeto empty</dc:title>
      </cc:Work>
    </rdf:RDF>
  </metadata>
</svg>
