<?xml version="1.0" encoding="UTF-8" standalone="no"?>
<svg
   version="1.2"
   viewBox="0 0 1000 1559"
   width="1000"
   height="1559"
   id="svg1"
   sodipodi:docname="eyesClosed.svg"
   inkscape:version="1.4.2 (ebf0e940d0, 2025-05-08)"
   xmlns:inkscape="http://www.inkscape.org/namespaces/inkscape"
   xmlns:sodipodi="http://sodipodi.sourceforge.net/DTD/sodipodi-0.dtd"
   xmlns="http://www.w3.org/2000/svg"
   xmlns:svg="http://www.w3.org/2000/svg"
   xmlns:rdf="http://www.w3.org/1999/02/22-rdf-syntax-ns#"
   xmlns:cc="http://creativecommons.org/ns#"
   xmlns:dc="http://purl.org/dc/elements/1.1/">
  <defs
     id="defs1" />
  <sodipodi:namedview
     id="namedview1"
     pagecolor="#ffffff"
     bordercolor="#000000"
     borderopacity="0.25"
     inkscape:showpageshadow="2"
     inkscape:pageopacity="0.0"
     inkscape:pagecheckerboard="0"
     inkscape:deskcolor="#d1d1d1"
     inkscape:zoom="0.34701732"
     inkscape:cx="499.97505"
     inkscape:cy="779.5"
     inkscape:window-width="1362"
     inkscape:window-height="744"
     inkscape:window-x="1"
     inkscape:window-y="21"
     inkscape:window-maximized="1"
     inkscape:current-layer="svg1" />
  <title
     id="title1">gabbeeto empty</title>
  <style
     id="style1">
		.s0 { fill: #000000 } 
		.s1 { opacity: .94;fill: #000000 } 
		.s2 { fill: #ffbbbb } 
		.s3 { fill: #010100 } 
	</style>
  <path
     id="eyesClosed"
     class="s3"
     d="m306.3 558.4c-3.6 2.1-3.8 2.4-3.8 7.1 0 5 0 5 5.5 8.3 3 1.8 8.6 4.2 12.5 5.3 3.9 1.2 8.1 2.7 9.5 3.5 1.4 0.8 6.3 2.8 11 4.5 4.7 1.7 10.5 3.7 13 4.6 2.5 0.8 7.6 2.7 11.5 4.3 3.9 1.6 8.4 3.2 10 3.6 1.6 0.4 4.8 1.6 7 2.7 2.2 1.1 7.6 3.2 12 4.8 4.4 1.5 12.5 4.4 18 6.4 5.5 2.1 13.4 5 17.5 6.5 4.1 1.6 12.4 4.6 18.5 6.9 6 2.2 11.7 4.9 12.6 5.8 1 1 1.9 2.7 2.3 3.8 0.3 1.1 0 2.7-0.7 3.6-0.7 0.9-3.5 2.6-6.2 3.9-2.8 1.2-8.5 3.5-12.8 5.1-4.2 1.6-11.2 4.2-15.5 5.8-4.2 1.6-10.4 4.1-13.7 5.5-3.3 1.4-6.4 2.6-7 2.6-0.6 0-3.9 1.3-7.5 2.8-3.6 1.6-7.9 3.2-9.5 3.6-1.6 0.4-5 1.7-7.5 2.8-2.5 1.1-8.1 3.4-12.5 5-4.4 1.6-11.4 4.2-15.5 5.8-4.1 1.6-11.3 4.3-16 6-4.7 1.7-9.9 3.9-11.5 4.7-1.6 0.9-5.3 2.2-8 3-2.8 0.8-7.5 2.8-10.5 4.5-3 1.7-5.8 3.6-6.2 4.2-0.4 0.6-0.8 2.8-0.8 4.9 0 3.2 0.6 4.1 4 6.7l4 3c17.4-6.3 25.9-9.4 30-11 4.1-1.5 9.3-3.5 11.5-4.5 2.2-1 6.2-2.4 9-3.2 2.7-0.8 5.6-2 6.4-2.7 0.8-0.6 5.8-2.6 11-4.4 5.3-1.9 12.7-4.5 16.6-5.8 3.9-1.4 7.4-2.9 8-3.3 0.5-0.5 4.1-1.9 8-3.1 3.9-1.3 8.4-3 10-3.8 1.6-0.9 6.5-2.8 10.7-4.4 4.3-1.5 11.3-4.1 15.5-5.6 4.3-1.6 8.9-3.4 10.3-4.2 1.4-0.7 5.4-2.3 9-3.5 3.6-1.2 8.7-3.1 11.5-4.3 2.7-1.1 9.9-3.9 16-6.2 8.1-3 11.9-5.1 14.2-7.6 2.8-2.9 3.2-3.9 2.7-6.6-0.4-1.8-1.1-3.9-1.8-4.7-0.6-0.7-4-2.7-7.6-4.3-3.6-1.6-10.8-4.5-16-6.5-5.2-1.9-11.5-4.1-14-5-2.5-0.8-7.4-2.7-11-4.3-3.6-1.6-8.1-3.1-10-3.5-1.9-0.4-5.3-1.6-7.5-2.8-2.2-1.1-7.8-3.3-12.5-4.9-4.7-1.7-12.1-4.4-16.5-6-4.4-1.7-12.1-4.5-17-6.3-5-1.8-12.8-4.7-17.5-6.4-4.7-1.7-9.4-3.6-10.5-4.2-1.1-0.5-5.8-2.3-10.5-4-4.7-1.7-11.2-4-14.5-5.1-3.3-1.1-8.9-3.3-12.5-4.8-3.6-1.6-9.7-3.8-13.7-4.8l-7.1-2zm493.1 1.6c-3.3 0.9-7.3 2.4-9 3.3-1.6 0.8-6 2.4-9.7 3.6-3.7 1.2-7.8 2.8-9 3.5-1.3 0.8-5 2.2-8.3 3.2-3.3 0.9-7.3 2.3-9 3-1.6 0.8-6.8 2.8-11.5 4.5-4.6 1.7-12.5 4.6-17.5 6.4-4.9 1.8-12.1 4.4-16 5.8-3.8 1.4-9.4 3.7-12.5 5-3 1.3-6.8 2.7-8.5 3.1-1.6 0.4-6.1 2-10 3.6-3.8 1.6-9 3.5-11.5 4.4-2.4 0.8-8.7 3.1-14 5.1-5.2 2.1-13.5 5.2-18.5 7-4.9 1.8-11.4 4.2-14.5 5.4-3 1.2-6.7 3.5-8.2 5.2-1.7 1.8-2.8 4-2.8 5.9 0 1.7 1 4.1 2.3 5.5 1.2 1.4 7.1 4.5 13.2 7 6.1 2.5 11.6 4.5 12.3 4.5 0.7 0 3.1 1 5.5 2.1 2.3 1.2 7.8 3.5 12.2 5.1 4.4 1.6 11.4 4.2 15.5 5.8 4.2 1.5 12.3 4.6 18 7 5.8 2.3 13 5 16 5.9 3.1 1 7.3 2.7 9.5 3.8 2.2 1.2 6.6 2.8 9.8 3.7 3.1 0.9 7.2 2.5 9 3.5 1.8 1.1 5.3 2.5 7.7 3.1 2.5 0.7 6.6 2.3 9 3.5 2.5 1.3 6.1 2.6 8 3 2 0.4 6.2 2 9.5 3.5 3.3 1.5 8.5 3.6 11.5 4.5 3.1 1 7.1 2.7 9 3.7 2 1 4.1 1.8 4.8 1.8 0.7 0 4.7 1.4 9 3.1 7.4 2.9 7.9 3 11 1.5 1.8-0.9 3.9-2.6 4.8-3.8 1.2-1.8 1.4-3.2 0.7-6.3-0.8-3.7-1.4-4.3-8.3-7.8-4.1-2.1-9.5-4.4-12-5.1-2.4-0.7-6.9-2.5-10-3.8-3-1.4-6.8-2.8-8.5-3.2-1.6-0.4-4.8-1.5-7-2.6-2.2-1-7.8-3.3-12.5-5.1-4.6-1.7-10.9-4-14-5-3-1.1-7.9-3-11-4.3-3-1.4-8.6-3.6-12.5-5.1-3.8-1.5-10.5-4-14.7-5.6-4.3-1.6-11.3-4.2-15.5-5.8-4.3-1.6-10.2-3.9-13.3-5.1-3-1.2-8.4-3.4-12-4.8-3.5-1.4-7.5-3.6-8.7-4.9-1.3-1.3-2.3-2.7-2.3-3.3 0-0.5 1-2 2.3-3.3 1.2-1.2 5.2-3.4 8.7-4.9 3.6-1.4 8.6-3.3 11-4.1 2.5-0.8 8.4-2.9 13-4.6 4.7-1.7 9.4-3.6 10.5-4.2 1.1-0.7 5.6-2.4 10-3.9 4.4-1.6 12.5-4.5 18-6.5 5.5-2 13.4-4.9 17.5-6.4 4.2-1.4 8.9-3.4 10.5-4.3 1.7-0.9 5.3-2.2 8-2.8 2.8-0.7 7.2-2.3 9.8-3.6 2.6-1.3 6.9-2.9 9.5-3.6 2.6-0.6 7.4-2.4 10.7-3.9 3.3-1.5 7.6-3 9.5-3.3 2-0.4 5.7-2.3 8.3-4.1 2.6-1.9 5-4.3 5.4-5.2 0.3-1 0.3-3.2 0-5-0.5-2.5-1.5-3.6-4.2-4.8-1.9-0.8-4.5-1.4-5.7-1.4-1.3 0.1-5 0.9-8.3 1.9z" />
  <metadata
     id="metadata1">
    <rdf:RDF>
      <cc:Work
         rdf:about="">
        <dc:title>gabbeeto empty</dc:title>
      </cc:Work>
    </rdf:RDF>
  </metadata>
</svg>
