<?xml version="1.0" encoding="UTF-8" standalone="no"?>
<svg
   version="1.2"
   viewBox="0 0 202 315"
   width="202"
   height="315"
   id="svg1"
   sodipodi:docname="gabbeeto empty.svg"
   inkscape:version="1.4.2 (ebf0e940d0, 2025-05-08)"
   xmlns:inkscape="http://www.inkscape.org/namespaces/inkscape"
   xmlns:sodipodi="http://sodipodi.sourceforge.net/DTD/sodipodi-0.dtd"
   xmlns="http://www.w3.org/2000/svg"
   xmlns:svg="http://www.w3.org/2000/svg">
  <defs
     id="defs1" />
  <sodipodi:namedview
     id="namedview1"
     pagecolor="#ffffff"
     bordercolor="#000000"
     borderopacity="0.25"
     inkscape:showpageshadow="2"
     inkscape:pageopacity="0.0"
     inkscape:pagecheckerboard="0"
     inkscape:deskcolor="#d1d1d1"
     inkscape:zoom="1.9236948"
     inkscape:cx="17.414405"
     inkscape:cy="168.16597"
     inkscape:window-width="1354"
     inkscape:window-height="742"
     inkscape:window-x="2"
     inkscape:window-y="22"
     inkscape:window-maximized="1"
     inkscape:current-layer="Background" />
  <title
     id="title1">gabbeeto empty</title>
  <style
     id="style1">
		.s0 { fill: #000000 } 
		.s1 { fill: #2b2b2b } 
		.s2 { fill: #185378 } 
		.s3 { fill: #793815 } 
		.s4 { fill: #666766 } 
		.s5 { fill: #ffce88 } 
		.s6 { fill: #ffffff } 
	</style>
  <g
     id="Background">
    <path
       id="Path 0"
       class="s0"
       d="m123 5.5c0 2.5-0.6 6-1.3 7.8-0.7 1.7-2.4 4.2-3.6 5.3-2.2 2-3.1 2.1-16 1.6-8.4-0.3-16.9 0-22.1 0.8-4.7 0.7-11.9 2.3-16 3.7-4.1 1.3-10.6 4.3-14.5 6.5-3.8 2.3-10.2 7.3-14 11.2-3.9 3.9-8.9 10.3-11.1 14.1-2.3 3.9-5.3 9.9-6.7 13.5-1.4 3.6-3.7 11.5-5.2 17.5-1.4 6-3.4 14.6-4.5 19-1.2 4.4-3.3 9.8-4.8 11.9l-2.7 4c5.4-0.9 7.7-1.4 8.5-1.7 1.3-0.6 1.4 0.1 0.7 5.1-0.5 3.1-0.6 8.6-0.2 12.2 0.3 3.6 1.2 9 2 12 0.8 3 2.3 7.8 3.5 10.5 1.2 2.8 3.6 7.2 5.3 9.8 2.2 3.4 3.4 4.4 3.9 3.5 0.4-0.7 0.8-2.5 0.8-4 0-1.6 0.1-2.8 0.3-2.8 0.1-0.1 2 1.6 4.2 3.6 2.2 2.1 6.5 4.9 9.5 6.2 3 1.4 8.2 2.7 11.5 3l6 0.6-1.5-6.4c9.7 5.7 12.7 7.5 13 7.7 0.3 0.1-1.4 2.9-3.6 6-2.3 3.2-5.8 8.3-7.7 11.3-3.4 5.3-3.5 5.7-2.3 9.5 1.1 3.7 0.9 4.6-2.1 11.5-1.7 4.1-4.8 12.8-6.7 19.3-2 6.4-3.6 12.6-3.6 13.7 0 1.1 1 2.7 2.3 3.5 1.2 0.8 4.1 1.5 6.5 1.5 2.3 0 4.2 0.1 4.2 0.3 0 0.1-1.1 6.8-2.5 14.9-1.4 8.2-2.5 17.2-2.5 20.1-0.1 3.7 0.4 5.7 1.7 6.9 1 1 2.6 1.8 3.6 1.8 1.2 0 1.7 0.8 1.7 3q0 3 3 6c1.7 1.7 4.2 3.1 5.8 3.2 1.5 0 3.8 0 5.2-0.1 1.5-0.1 3.8-1.7 5.8-3.9 1.8-2 3.2-4.5 3.2-5.5 0-1.5 1.5-1.7 16.4-2l16.4-0.2c2.5 5.7 4.3 7.6 6.6 8.7 2 1 5 1.8 6.6 1.8 2 0 4-0.9 5.5-2.5 1.9-1.9 2.5-3.6 2.5-7 0-3.3 0.5-4.7 1.8-5.4 0.9-0.4 2.5-1.6 3.5-2.5 1.1-1 1.7-3.1 1.7-5.6 0-2.3-2.3-10.3-5.5-19.3-4.2-11.5-5.2-15.4-4.3-15.9 0.7-0.4 2.5-0.8 4.1-0.8q2.7 0 3.8-2.3c1-1.8 0.6-3.9-2-11.7-1.8-5.2-5.3-13.7-7.7-18.8-4.1-8.7-4.3-9.4-3-12 0.8-1.5 1.2-3.1 0.9-3.7-0.3-0.6-3.9-5.8-8-11.8-4-5.9-7.2-10.8-7-11 0.1-0.2 3.6-1.3 7.7-2.5 4.1-1.1 10-3 13-4 3-1.1 8.5-3.4 12.3-5.1 3.7-1.7 6.9-3.1 7.2-3.1 0.3 0 0.2 2.7-0.2 6-0.7 5-0.5 6 0.7 6.1 0.8 0 3.2-1.8 5.3-4.1 2-2.2 3.7-4.4 3.7-5 0-0.6 0.4-1 1-1 0.6 0 1 1.6 1 3.5 0 1.9 0.4 3.7 1 4 0.6 0.3 2.3-1.1 4-3 1.7-1.9 3.9-5.3 5-7.5 1.1-2.2 3.2-7.9 4.6-12.8 1.7-5.6 2.8-12.5 3.2-19.5 0.6-9 0.9-10.6 2.2-10.1 0.8 0.4 3.5 1.3 6 2 2.5 0.8 4.7 1.4 5 1.4 0.3 0-0.9-3.1-2.7-6.8-1.7-3.7-3.6-9.2-4.2-12.2-0.5-3-1.4-9.1-2-13.5-0.6-4.4-1.3-8.9-1.6-10-0.5-1.8-0.2-2 3.2-1.6 2.1 0.2 5.7 0 8.1-0.3 2.3-0.3 4.2-0.9 4.2-1.4 0.1-0.4-1.6-1.9-3.7-3.3-2.1-1.4-6.2-4.8-9.2-7.5-3-2.7-9.1-9.9-13.6-15.9-4.5-6-10.1-12.7-12.4-14.8-2.2-2-6-4.9-8.3-6.4-2.4-1.5-7.5-3.9-11.3-5.4l-7-2.8c0.7-9.4 0.2-11.7-1.6-15.5-1.3-2.7-3.7-6-5.4-7.3-1.6-1.2-3.3-2.3-3.7-2.3-0.5 0-0.8 2-0.8 4.5z"
       inkscape:label="border" />
    <path
       id="Path 1"
       fill-rule="evenodd"
       class="s1"
       d="m 76.6,185 c 0.8,0 1.6,0.8 1.9,1.7 0.2,1 1.5,2.8 2.7,4.1 1.3,1.2 4.1,2.5 6.3,2.9 3.6,0.6 4.3,0.3 7.2,-2.5 1.8,-1.8 3.3,-3.9 3.3,-4.7 0,-0.8 0.9,-1.5 2,-1.5 1.5,0 2.2,0.9 2.6,3.2 6.75143,22.35929 18.38731,56.76772 18.4,56.8 l -2.3,0.4 c -15.90782,4.30573 -53.104258,3.33659 -54.4,2.3 -0.4,-0.5 -0.0091,-5.60154 1,-11.5 5.020532,-29.34748 9.999386,-51.2 11.3,-51.2 z"
       sodipodi:nodetypes="sccccssccccss"
       inkscape:label="tshirt"
       style="fill:#f3bedb;fill-opacity:1" />
    <path
       id="Path 2"
       class="s2"
       d="m 108.74455,250.27909 c -5.8,1 -14.600004,1.4 -27.600004,1.2 l -19.1,-0.3 c -4,27.9 -4.844546,46.0145 -4.744546,46.1145 0.1,0.2 7.9,0.8 17.2,1.4 9.3,0.7 17.559711,-0.2626 18.359711,-0.5626 1.3,-0.5 2.075307,-7.47431 1.575307,-18.37431 C 94.135018,272.65668 93.6,266.1 94,265.5 c 0.5,-0.6 1.1,-0.4 1.6,0.5 0.4,0.8 1,7.1 1.2,14 l 0.359711,17.83099 c 7.702079,2.54751 24.940289,-1.0374 29.340289,-2.2374 4.4,-1.1 8.3,-2.4 8.6,-2.8 0.4,-0.4 -2.2,-14.69359 -5.6,-23.79359 -6,-15.9 -6.55545,-19.82091 -9.35545,-19.92091 -1.6,-0.1 -6.7,0.5 -11.4,1.2 z"
       sodipodi:nodetypes="cccccccccccccccc"
       inkscape:label="pant"
       style="fill:#583b4c;fill-opacity:1" />
    <path
       id="Path 3"
       fill-rule="evenodd"
       class="s3"
       d="m 128,28 3.7,1.5 c 17.49234,3.492071 32.61387,21.399255 38.3,28 4.80319,5.575788 7.44362,10.573555 12.5,15.1 2.2,2 5.5,4.3 7.2,5 1.8,0.8 3.3,1.9 3.3,2.4 0,0.6 -2,0.8 -5.3,0.4 -4.5,-0.5 -5.8,-1.2 -9.9,-5.2 -2.6,-2.6 -5,-4.5 -5.2,-4.2 -0.3,0.3 0.6,2.3 2.1,4.5 7.40956,10.926877 9.0928,24.245761 11,36.5 2.81294,10.54854 0.764,8.55178 -7.7,-0.5 -1.10792,6.45587 2.01685,14.94465 -1,21 -0.6,0.3 -1.3,-0.3 -1.6,-1.2 -0.3,-1 -1,-2.8 -1.5,-4 -2.8273,-7.35097 -3.9791,-9.46238 -4,-9.5 -1.34935,-2.69871 -0.0476,-15.15121 -2,-19.3 -0.66957,-1.626105 -6.93588,-10.668129 -10.9,-14.5 -4.06874,-3.932999 0.37986,-0.0089 -9.8,-15.5 -4.6488,6.043705 -7.30976,21.285309 -15.9,23.2 -1.22217,-1.222173 3,-5.46194 3,-11.9 0.1,-2.5 0,-4.9 -0.3,-5.2 -0.85485,-0.569898 -10.05962,20.429811 -18,24.4 -0.64484,-7.569518 -3.25581,-26.744225 -6.2,-36.5 l -3.1,3.2 c -3.72348,3.516619 -8.797911,10.982205 -11.5,14.1 -1.3,1.5 -3.5,4.7 -7.7,11.7 -3.097764,-11.380621 0.864033,-24.89564 0.4,-30 0,-3.292429 -4.145228,9.006001 -20.7,30.2 -2,2.9 -4,5.3 -4.5,5.3 -1.493162,0 1.923382,-29.387205 -1.1,-25.5 -9.804504,19.865543 -15.184677,43.5 -18.1,43.5 -0.6,0 -2.2,-1.9 -6.5,-8.5 0,21.39977 9.002052,20.06556 9.2,19.5 0.5,-1.1 1.2,-2 1.8,-2 1.113948,0 3.416961,19.4875 7.7,24.1 1.3,1.3 2.3,3 2.3,3.7 0,0.6 -0.6,1.2 -1.3,1.2 -0.6,0 -2.1,-0.6 -3.2,-1.5 -1.1,-0.8 -2.3,-1.5 -2.8,-1.5 -0.4,0 -0.7,1.7 -0.7,3.8 0,2 -0.4,5.4 -0.8,7.5 -0.4,2 -1.1,3.6 -1.5,3.5 -1.33614,-0.53446 -6.7,-17.62216 -6.7,-10 0,2.72181 4.827737,15.98832 7.2,16.7 1,0.3 1.8,1.2 1.8,2 0,1.2 -0.8,1.4 -3.3,0.9 -9.655413,-2.27186 -15.878354,-8.54597 -23.7,-21.9 l -0.7,3.3 c -0.5,1.8 -1.3,3.2 -1.8,3.2 -4.356891,0 -5.097234,-20.49214 -5.2,-24.5 -1.051316,-13.63717 -0.3,-15.3 1.6,-18.7 1.7,-3.1 1.8,-3.8 0.6,-3.8 -2.222671,0 -7.5,3.40179 -7.5,2 6.792904,-18.273114 7.982829,-39.142974 19.6,-55.5 0.7,-0.5 1.3,-1.3 1.4,-1.7 0,-0.5 1,-2 2.2,-3.5 6.490165,-7.630749 13.35902,-14.70084 22.3,-19.4 19.274433,-10.780952 41.160436,-9.664234 62.6,-10.4 6.45451,-4.278906 5.34699,-11.640691 7.91675,-16.3533149 C 127.06583,6.0976021 135.25606,16.240174 128,28 Z m 46.3,122.1 c 0.4,0 0.6,1.6 0.4,3.6 -0.2,2.1 -1.7,5.9 -3.3,8.5 -1.6,2.6 -3.2,4.7 -3.7,4.8 -0.4,0 -1.1,-1.1 -1.7,-2.5 -0.6,-1.4 -1,-3.1 -1,-3.8 -0.1,-0.6 1.9,-3.3 4.2,-5.8 2.4,-2.6 4.6,-4.7 5.1,-4.8 z M 159.5,163 c 0.8,0 1.5,0.7 1.5,1.5 0,0.8 -0.7,2.6 -1.5,4 -0.8,1.4 -1.9,2.5 -2.5,2.5 -0.6,0 -0.7,-1.3 -0.4,-3.3 0.4,-1.7 0.8,-3.5 1.1,-4 0.2,-0.4 1.1,-0.7 1.8,-0.7 z"
       sodipodi:nodetypes="ccsscsccccccsccccscscccccscccscsccscsscssccssscccsccsscccccccccscscccssssccs"
       inkscape:label="hair"
       style="fill:#613f2d;fill-opacity:1" />
    <path
       id="Path 5"
       class="s5"
       d="M 88.3,103.5 C 82.67178,99.995598 83.434934,91.314657 79.7,87 c -0.4,0 -3.1,2.9 -6,6.4 -7.998712,9.99839 -10.750938,18.28365 -11.7,18.6 -5.552912,-2.02764 -5.107275,-9.60118 -5.6,-14.5 -9.051086,21.27525 1.151357,45.70271 5.7,54.8 1.6,3.1 2.9,6 2.9,6.5 0,2.09311 -9.426647,-2.82178 -10.3,2.2 -1.803214,8.56526 24.493037,21.13175 49.8,17 9.34718,-1.48705 26.27841,-6.65881 38,-12.4 2.61668,-1.22824 17.55764,-8.44341 24.7,-16.3 2,-2.1 4.2,-5 4.7,-6.5 1.88954,-5.03878 -5.38842,-15.51261 -7.7,-26.3 -0.6,-2.7 -1.4,-8.2 -1.8,-12 -0.7,-6.9 -0.7,-7.1 -6.3,-12.1 -3.1,-2.8 -6.3,-6.3 -7.1,-7.8 -0.8,-1.5 -1.8,-2.6 -2.3,-2.6 -0.4,0 -0.7,0.6 -0.7,1.3 -4.26785,13.196174 -21.66033,20.55742 -34.8,21.7 h -2.7 C 108.4,84.5 107.9,77.5 107.4,76.2 104.42896,69.960818 92.155864,98.292667 88.3,103.5 Z M 82,186.8 c -0.181628,0.72651 2.658049,4.2 6,4.2 3.124445,0 7,-2.67315 7,-4 0,-0.6 -4.099582,-1 -7.799582,-1 C 83.600418,186 82,186.3 82,186.8 Z m 36.3,34 c 1.25411,5.11437 7.0791,22.10919 11.7,26.7 10.26519,10.19835 -15.24441,-42.64985 -11.7,-26.7 z m -62.3,30 c 0,-0.38099 5.841621,-30.87919 4.8,-31.4 -2.492281,7.04734 -21.622643,34.98427 -4.8,31.4 z"
       sodipodi:nodetypes="csccccsccccccccssssccccsssccscscs"
       inkscape:label="skin"
       style="fill:#fcd397;fill-opacity:1" />
    <path
       id="Path 6"
       class="s6"
       d="m113 202.9l2.5 9c3.5-3.4 4.5-4.7 4.5-5.2 0-0.4-2-3.4-4.4-6.7-2.4-3.3-4.5-6-4.8-6-0.2 0 0.8 4 2.2 8.9zm-50.3-1.6c-1.9 3.1-2.3 4.7-1.6 5.9 0.5 1 1.2 1.8 1.6 1.8 0.5 0 1.3-2.5 2-5.7 0.6-3.1 1-5.8 0.9-5.9-0.1-0.2-1.4 1.6-2.9 3.9z"
       inkscape:label="arm"
       style="fill:#f3bedb;fill-opacity:1" />
    <path
       style="fill:#1a1a1a;fill-opacity:1"
       d="m 77.71503,200.91545 c -1.043095,12.3732 -3.132239,24.97977 -4.938413,37.42797 -0.05129,0.35352 -0.146953,0.70078 -0.259916,1.03967 -0.03875,0.11624 -0.259917,0.13739 -0.259917,0.25991 0,0.19373 0.336044,-0.19865 0.519833,-0.25991 0.419103,-0.1397 0.869123,-0.16058 1.299583,-0.25992 20.848086,-4.81109 25.448777,0.0258 27.81106,-2.33925 0.14367,-0.14367 -0.0143,-15.39362 -0.25991,-15.8549 -7.266684,-1.33562 -11.926663,4.3453 -17.93424,6.49791 4.350117,-4.78811 -2.582372,-16.35023 2.916737,-21.64807 0.154998,-0.14933 6.917918,1.44603 11.118753,-1.35454 0.615968,-0.41064 3.24384,-0.0624 3.89875,-0.38988 0.0775,-0.0387 0.19865,0.0613 0.25991,0 0.0654,-0.0654 1.68946,-3.00784 1.68946,-3.24895 0,-0.57625 -1.55697,-3.11647 -1.94937,-3.50887 -0.2526,-0.2526 -0.69531,0.16492 -1.03967,0.25991 -5.474798,0.53001 -18.245883,7.42467 -22.87265,3.37892 z"
       id="path3"
       sodipodi:nodetypes="csssssccssssssssc"
       inkscape:label="goutside" />
    <path
       style="fill:#f3bfdc;fill-opacity:1"
       d="m 97.078809,225.21764 c -6.523846,0.59228 -7.605121,4.04223 -14.524911,3.70572 0.674287,1.18766 0.827541,2.7668 0.649792,4.15867 -0.05099,0.39927 -1.766463,1.87778 -1.616035,2.02821 5.321972,-2.30587 11.09161,0.61239 14.299232,-1.40072 1.9039,-1.19489 1.664817,-6.54747 1.191922,-8.49188 z"
       id="path4"
       sodipodi:nodetypes="ccsssc"
       inkscape:label="ginside" />
  </g>
</svg>
