<?xml version="1.0" encoding="UTF-8" standalone="no"?>
<svg
   version="1.2"
   viewBox="0 0 1000 1559"
   width="1000"
   height="1559"
   id="svg1"
   sodipodi:docname="mouthOpened.svg"
   inkscape:version="1.4.2 (ebf0e940d0, 2025-05-08)"
   xmlns:inkscape="http://www.inkscape.org/namespaces/inkscape"
   xmlns:sodipodi="http://sodipodi.sourceforge.net/DTD/sodipodi-0.dtd"
   xmlns="http://www.w3.org/2000/svg"
   xmlns:svg="http://www.w3.org/2000/svg"
   xmlns:rdf="http://www.w3.org/1999/02/22-rdf-syntax-ns#"
   xmlns:cc="http://creativecommons.org/ns#"
   xmlns:dc="http://purl.org/dc/elements/1.1/">
  <defs
     id="defs1" />
  <sodipodi:namedview
     id="namedview1"
     pagecolor="#ffffff"
     bordercolor="#000000"
     borderopacity="0.25"
     inkscape:showpageshadow="2"
     inkscape:pageopacity="0.0"
     inkscape:pagecheckerboard="0"
     inkscape:deskcolor="#d1d1d1"
     inkscape:zoom="0.34701732"
     inkscape:cx="499.97505"
     inkscape:cy="779.5"
     inkscape:window-width="1362"
     inkscape:window-height="744"
     inkscape:window-x="1"
     inkscape:window-y="21"
     inkscape:window-maximized="1"
     inkscape:current-layer="svg1" />
  <title
     id="title1">gabbeeto empty</title>
  <style
     id="style1">
		.s0 { fill: #000000 } 
		.s1 { opacity: .94;fill: #000000 } 
		.s2 { fill: #ffbbbb } 
		.s3 { fill: #010100 } 
	</style>
  <g
     id="mouthOpened">
    <path
       id="Path 0"
       class="s1"
       d="m494.5 770.9c-1.1 0.5-13.7 1.2-28 1.5-14.3 0.4-27.6 1.2-29.5 1.6-1.9 0.5-5.8 1.7-8.5 2.7-4.4 1.5-5.6 2.6-9.7 8.8l-4.8 7c0.1 33.3 0.6 45.5 1.1 48.5 0.5 3 1.7 11.6 2.8 19 1 7.4 2.4 14.6 3.1 16 0.7 1.4 1.6 4.9 2.1 7.8 0.5 2.8 1.7 6.2 2.7 7.5 1 1.2 2.1 3.8 2.5 5.7 0.4 2.2 2.4 5.3 5.2 8.3 2.5 2.6 4.5 5.4 4.5 6.2 0 1.2 1.7 1.5 9.5 1.5 7 0 9.5-0.3 9.5-1.2-0.1-0.7 0.9-2.2 2-3.3 1.1-1.1 2.1-2.8 2-3.7 0-1 0.7-3.4 1.5-5.3 1.4-3.2 1.3-3.8-0.1-6.7-1-1.8-2.3-4-2.9-4.8-0.7-0.8-2.9-4.9-5-9-2-4.1-4.2-8.4-4.7-9.5-0.6-1.1-2.2-5.1-3.5-9-1.3-3.9-3.5-11.7-4.9-17.5-1.3-5.8-2.9-15.5-3.5-21.5-1-9.1-1-11.5 0.2-14l1.4-2.9c27.1 0.4 37.9 0.1 41.5-0.5 3.6-0.5 32.8-1.5 65-2.1 42.4-0.9 59.3-0.9 61.3-0.1 1.5 0.6 2.7 1.9 2.7 2.9 0 0.9-0.8 3.3-1.9 5.2-1 1.9-2.2 5.1-2.6 7-0.4 1.9-1.1 4-1.6 4.5-0.5 0.5-2 4.1-3.4 8-1.5 3.9-3.3 9-4.1 11.5-0.8 2.5-2.1 5.2-2.9 6-0.7 0.8-1.7 2.9-2.1 4.5-0.4 1.6-1.5 4.6-2.5 6.5-1.1 1.9-2.6 5.1-3.4 7-0.8 1.9-2 4.4-2.7 5.5-0.7 1.1-2.4 3.3-3.7 5-1.3 1.6-4.3 4.2-6.5 5.6-2.3 1.5-5.6 3-7.3 3.3-1.8 0.3-3.6 1.4-3.9 2.4-0.4 0.9 0 3.7 0.8 6.2 1.2 3.9 1.9 4.6 5.4 5.7 2.1 0.6 6.7 1.2 10.2 1.2 4 0.1 7.7-0.6 10.5-1.8 2.3-1 6.6-4 9.6-6.7 3-2.7 6.4-6.3 7.5-8 1.2-1.8 3.7-5.6 5.6-8.5 1.9-3 4.3-6.8 5.2-8.4 0.9-1.6 3.3-6.3 5.2-10.2 2-4 3.6-7.6 3.6-8 0-0.5 1.1-3 2.5-5.8 1.4-2.7 2.5-5.8 2.5-6.7 0-1 0.9-3.3 1.9-5 1-1.8 2.2-5.1 2.6-7.3 0.4-2.2 1.4-5.4 2.2-7 0.9-1.6 2.2-5.5 2.9-8.5 0.6-3 1.9-7.3 2.8-9.5 0.8-2.2 1.5-7.1 1.5-11 0.1-3.9-0.3-8.1-0.7-9.4-0.5-1.6-2.6-3.4-6.4-5.2l-5.8-2.9c-104.2 0.1-135.4 0.5-136.5 0.9z" />
    <path
       id="Path 1"
       fill-rule="evenodd"
       class="s2"
       d="m428.9 774.2c0.9 0.7 1.8 1.4 2.1 1.5 0.3 0.2-1.1 0.4-3 0.4-3.1 0-3.3-0.2-2.1-1.6 1.1-1.2 1.7-1.3 3-0.3zm159.4 27c9.2-0.1 17.8 0.2 19.2 0.8 1.4 0.5 2.5 1.8 2.5 2.7 0 1-0.8 3.4-1.9 5.3-1 1.9-2.2 5.1-2.6 7-0.4 1.9-1.1 4-1.6 4.5-0.5 0.5-2 4.1-3.4 8-1.5 3.8-3.3 9-4.1 11.5-0.8 2.5-2.1 5.2-2.9 6-0.7 0.8-1.7 2.8-2.1 4.5-0.4 1.6-1.5 4.6-2.5 6.5-1.1 1.9-2.6 5.1-3.4 7-0.8 1.9-2 4.4-2.7 5.5-0.7 1.1-2.4 3.3-3.7 5-1.3 1.6-4.3 4.2-6.5 5.6-2.3 1.5-5.6 3-7.3 3.3-1.8 0.3-3.6 1.2-4 1.8-0.4 0.7-1 2.6-1.4 4.3-0.4 2-0.8 2.5-1.2 1.5-0.3-0.8-0.8-2.7-1.1-4.3-0.4-1.6-1.4-2.9-2.6-3.2-1.1-0.3-3.7 0.4-5.7 1.5-2.3 1.2-5.7 2-8.8 2-2.8 0-7 0.9-9.5 2-3 1.4-8.4 2.4-16.2 3-6.5 0.6-12.7 1.5-13.8 2-1.1 0.5-8.3 1-16 1-7.7 0-14.9 0.5-16 1q-2 1-2 0c0-0.5-0.9-1.2-2-1.5-1.1-0.3-2.5-1.7-3.1-3.3-0.6-1.5-1.6-3.4-2.4-4.2-0.7-0.8-2.9-4.9-5-9-2-4.1-4.2-8.4-4.7-9.5-0.6-1.1-2.2-5.2-3.5-9-1.3-3.9-3.5-11.7-4.9-17.5-1.3-5.8-2.9-15.5-3.5-21.5-1-9.1-1-11.5 1.6-16.9l16.5 0.3c9.1 0.2 20.6-0.2 25.5-0.8 5-0.6 27.2-1.5 49.5-2 22.3-0.4 48-0.8 57.3-0.9zm-167.6 74.8c0.2 0 0.3 1.7 0.3 3.7-0.1 3.6-0.2 3.7-1.5 1.8-1.1-1.5-1.1-2.4-0.2-3.8 0.6-0.9 1.2-1.7 1.4-1.7zm151.7 24.4c1.7 0.3 5.1 0.7 7.6 0.8 3.2 0.1 2.3 0.3-3 0.8-4.1 0.3-7.8 0.5-8.2 0.3-0.5-0.2-0.5-0.8-0.1-1.4 0.4-0.6 1.9-0.8 3.7-0.5zm-112.4 9.6c0.6 0 1.2 0.7 1.5 1.5 0.3 0.9-0.1 1.5-1 1.5-0.8 0-1.5-0.7-1.5-1.5 0-0.8 0.5-1.5 1-1.5zm10.5-140.3c12.1 0.3 22.2 0.7 22.5 1 0.3 0.2-10.5 0.3-24 0.3-15.3-0.1-23.8-0.5-22.5-1 1.1-0.5 11.7-0.7 24-0.3zm167.5 48.3c0.5 0 1 0.7 1 1.5 0 0.8-0.5 1.5-1 1.5-0.5 0-1-0.7-1-1.5 0-0.8 0.5-1.5 1-1.5zm-5 15c0.5 0 1 0.5 1 1 0 0.5-0.5 1.2-1 1.5-0.5 0.3-1-0.2-1-1 0-0.8 0.5-1.5 1-1.5zm-217.4 15c0.2 0 0.4 2.5 0.4 5.5 0 3.3-0.4 5.3-1 5-0.5-0.3-1-2.1-1-4 0-1.9 0.3-4.2 0.6-5 0.3-0.8 0.8-1.5 1-1.5zm207.9 9c0.8 0 1.5 0.1 1.5 0.2 0.1 0.2-0.6 1-1.5 1.8-1.4 1.3-1.6 1.3-1.5-0.3 0-0.9 0.7-1.7 1.5-1.7zm-14.5 24c0.5 0 1 0.5 1 1 0 0.5-0.5 1.2-1 1.5-0.5 0.3-1-0.2-1-1 0-0.8 0.5-1.5 1-1.5zm-143.9 17.4c0.5 0.3 0.7 1.3 0.4 2.1-0.3 0.8-0.7 1.5-1 1.5-0.3 0-0.5-0.9-0.4-2.1 0.1-1.1 0.5-1.8 1-1.5z" />
  </g>
  <metadata
     id="metadata1">
    <rdf:RDF>
      <cc:Work
         rdf:about="">
        <dc:title>gabbeeto empty</dc:title>
      </cc:Work>
    </rdf:RDF>
  </metadata>
</svg>
